PathFileType	4	(X/Y/Z)	Run_500 03
DataRate	CameraRate	NumFrames	NumMarkers	Units	OrigDataRate	OrigDataStartFrame	OrigNumFrames
100	100	7	45	mm	100	235	137
Frame#	Time	RASI			LPSI			RPSI			RTH1			RTH2			RTH3			LTH1			LTH2			LTH3			RTB1			RTB2			RTB3			RLMAL			RMMAL			LTB1			LTB2			LTB3			RCAL			RTOE			RMT5			LCAL			LTOE			LMT5			LACR			RACR			CLAV			C7			LPSH			RUA1			RUA2			RUA3			RLEL			RMEL			LUA1			LUA2			LUA3			LLEL			LMEL			RFAsuperior			RFAradius			RFAulna			LFAsuperior			LFAradius			LFAulna			LASI		
		X1	Y1	Z1	X2	Y2	Z2	X3	Y3	Z3	X4	Y4	Z4	X5	Y5	Z5	X6	Y6	Z6	X7	Y7	Z7	X8	Y8	Z8	X9	Y9	Z9	X10	Y10	Z10	X11	Y11	Z11	X12	Y12	Z12	X13	Y13	Z13	X14	Y14	Z14	X15	Y15	Z15	X16	Y16	Z16	X17	Y17	Z17	X18	Y18	Z18	X19	Y19	Z19	X20	Y20	Z20	X21	Y21	Z21	X22	Y22	Z22	X23	Y23	Z23	X24	Y24	Z24	X25	Y25	Z25	X26	Y26	Z26	X27	Y27	Z27	X28	Y28	Z28	X29	Y29	Z29	X30	Y30	Z30	X31	Y31	Z31	X32	Y32	Z32	X33	Y33	Z33	X34	Y34	Z34	X35	Y35	Z35	X36	Y36	Z36	X37	Y37	Z37	X38	Y38	Z38	X39	Y39	Z39	X40	Y40	Z40	X41	Y41	Z41	X42	Y42	Z42	X43	Y43	Z43	X44	Y44	Z44	X45	Y45	Z45	

235	  2.350000	912.434914	1049.682412	-221.149133	750.988984	1109.309852	-386.518448	750.651944	1103.709631	-297.212746	760.794586	805.096040	-187.165121	810.883501	722.121198	-221.498968	712.510665	644.582361	-226.686097	901.541454	873.684339	-505.365254	1033.170629	835.978811	-487.321100	1047.646035	729.995672	-479.528990	645.490813	404.038491	-289.863709	574.435534	379.375805	-254.649096	527.429104	263.261213	-309.074267	427.243815	193.100250	-305.382276	466.059940	200.170790	-380.853911	1082.096575	530.647531	-447.079085	950.597779	501.884492	-471.489910	949.147647	388.222642	-444.376895	373.632119	213.753991	-377.414278	510.574241	 63.497029	-347.259712	444.671959	 73.931236	-282.266762	778.571515	322.233059	-396.447646	948.321419	185.039752	-450.446572	884.015259	213.308180	-510.850624	865.795119	1572.005786	-489.235438	924.102530	1544.819230	-182.042127	967.642870	1482.460652	-324.723734	863.485291	1581.730912	-330.313344	780.498143	1546.733001	-477.810822	883.143419	1398.135095	-90.607386	798.836285	1352.611607	-90.521935	808.880792	1298.408004	-48.352275	824.594378	1233.876549	-25.689941	776.594457	1218.958670	-104.799413	746.297956	1488.002208	-538.098759	671.115792	1432.546358	-510.767248	653.606685	1399.227193	-576.650485	625.609962	1327.729441	-605.156365	610.312774	1316.429141	-515.189539	881.138681	1197.808892	-65.880879	1019.563482	1274.551993	-185.830866	1038.247276	1212.455360	-165.244605	685.775393	1255.844875	-580.295830	854.522283	1268.129481	-535.470277	840.919584	1204.426988	-556.211218	917.949515	1067.382224	-446.589744	
236	  2.360000	916.951071	1056.932895	-222.168287	756.033110	1117.872325	-385.130333	755.843728	1110.892626	-295.879339	754.782991	815.108261	-186.792300	799.830085	730.502469	-221.400108	697.117916	658.792393	-225.996934	905.679714	885.262390	-505.904264	1036.079944	845.269470	-486.732749	1049.307851	737.806025	-478.577351	620.874251	419.346135	-285.905403	548.912401	396.280785	-250.356907	501.864461	278.486691	-304.345164	401.193286	209.672409	-300.684684	441.531576	214.434812	-375.071513	1096.893052	534.234742	-448.164564	969.187853	490.962819	-470.320495	981.654888	377.138588	-443.575459	353.851125	237.790013	-372.501150	471.420881	 67.114642	-344.462211	406.051854	 86.583766	-281.213530	820.153908	291.737200	-394.458436	1004.738736	174.850896	-446.554708	937.557950	194.250853	-507.591729	861.291146	1579.727516	-488.737003	923.785398	1554.538195	-183.898521	966.805432	1491.727550	-325.968506	862.046403	1589.942346	-330.880764	776.289227	1555.493280	-474.740032	884.692315	1409.604641	-91.313331	801.189434	1363.432460	-90.254477	811.933944	1309.293711	-48.039577	828.907035	1244.010961	-25.874602	778.189193	1229.442787	-103.805485	739.855464	1498.619077	-533.504796	666.201374	1444.429631	-502.493610	644.936748	1411.275491	-567.330013	614.036863	1339.573660	-594.048086	602.847657	1329.091374	-503.546385	884.501877	1209.299005	-68.768516	1016.539292	1290.653606	-193.211474	1037.089412	1228.789230	-173.489376	674.795026	1267.432035	-570.940988	845.593427	1279.515367	-533.655159	830.805769	1215.426409	-552.446594	921.128298	1078.648661	-447.295489	
237	  2.370000	920.678194	1063.832028	-222.543251	760.865602	1125.432782	-384.086888	760.281762	1118.151326	-294.651198	749.110701	825.591790	-186.194759	790.760861	739.244147	-220.089647	685.125596	672.353443	-225.762333	907.783995	893.303828	-505.328444	1036.774350	850.621060	-487.247237	1048.595135	742.275116	-477.239767	601.256228	434.366201	-284.222985	529.006459	413.048955	-247.713195	478.860683	295.653515	-301.167895	376.794804	230.005126	-296.485972	417.408493	232.682165	-370.565964	1109.559571	535.616185	-449.456982	987.412136	478.131252	-469.839945	1013.365452	366.142850	-442.369766	334.629200	263.814074	-367.227370	436.772411	 74.424242	-341.548094	371.473977	105.218252	-280.056949	862.725600	262.874677	-391.976326	1059.825833	167.621746	-441.376774	991.201839	177.697257	-503.101830	857.317917	1586.386478	-487.973872	922.894940	1563.107123	-185.671103	965.899223	1499.621298	-327.056236	860.351041	1596.578038	-331.241596	772.737789	1563.250697	-471.609749	885.928619	1420.074627	-92.007943	803.065007	1373.656637	-89.352767	814.436794	1319.291563	-47.444956	832.188332	1253.330664	-25.607738	778.837648	1239.006658	-102.280187	734.354518	1508.122447	-529.525977	662.281305	1455.603534	-494.909604	637.632462	1422.181982	-558.286624	603.671531	1350.522315	-583.162664	596.340867	1340.916341	-492.453607	886.637592	1219.554995	-70.891159	1013.138812	1304.872508	-198.974665	1034.710281	1242.907447	-180.476934	664.872714	1277.985482	-561.920255	837.295411	1289.676782	-531.848280	821.383880	1225.288688	-548.482722	923.761806	1087.667105	-447.976318	
238	  2.380000	923.333605	1070.198749	-222.138922	764.858651	1131.776026	-383.467010	763.812566	1125.113371	-293.749651	745.011913	835.439948	-185.403401	784.776395	747.600314	-218.611249	677.774547	683.720431	-225.770412	907.094872	896.440272	-503.405416	1034.841235	851.916122	-488.661527	1045.602346	743.249748	-475.626109	585.973587	448.201427	-284.775557	513.854240	429.303491	-246.832501	457.371917	314.794802	-299.654655	352.772052	254.084282	-293.343265	392.331379	255.148677	-367.961838	1119.773053	534.866595	-450.621207	1005.196226	463.449636	-469.646397	1043.965950	355.404073	-440.691200	313.357133	291.822136	-362.252634	403.935075	 88.404133	-340.584238	339.753742	128.772369	-278.956717	906.010105	236.348656	-388.576239	1112.750517	162.841205	-435.475765	1043.863221	163.679838	-497.637439	853.780114	1591.841238	-487.329184	921.466657	1570.398800	-187.083095	964.962785	1506.231100	-328.207836	858.383112	1601.553612	-331.534861	769.808887	1569.628019	-468.666225	887.041686	1428.883138	-92.514145	804.523061	1382.667949	-87.936554	816.393311	1327.967320	-46.386831	834.420737	1261.517803	-24.623499	778.617447	1247.285521	-100.036466	729.699053	1516.135268	-525.869871	659.213775	1465.227608	-487.974549	631.392932	1431.801126	-549.867364	594.530245	1360.234196	-573.135430	590.693701	1351.454752	-482.328423	887.610907	1228.419878	-71.934576	1009.379805	1316.929428	-202.982933	1031.350941	1254.554746	-186.140622	656.027862	1287.215894	-553.619942	829.634832	1298.369484	-530.205545	812.858490	1233.751784	-544.802129	925.763145	1093.943445	-447.808544	
239	  2.390000	924.945801	1075.940413	-220.995135	767.434902	1136.841610	-383.062109	766.348800	1131.129524	-293.181985	743.758326	843.252835	-184.422520	782.528688	754.683928	-218.218021	675.258856	692.000952	-225.821830	903.642907	895.119940	-500.558258	1030.634528	849.681515	-490.432263	1040.677534	740.946640	-474.408187	573.988385	460.430222	-286.180545	501.729058	445.150978	-247.152195	437.030853	335.397940	-299.337280	329.084950	281.120617	-291.614965	366.913254	280.753679	-367.120126	1127.083139	532.178978	-451.704826	1022.219364	447.362513	-469.337598	1073.022978	345.306436	-438.709162	290.254306	321.579637	-358.623577	371.220053	110.402172	-341.954702	310.117563	155.918888	-278.015019	949.477110	213.310868	-384.164337	1162.748067	159.666982	-429.326677	1094.340101	151.756355	-491.513702	850.688043	1596.081283	-487.255224	919.746815	1576.320534	-188.046024	964.091804	1511.885315	-329.548841	856.367602	1605.297604	-331.992676	767.453395	1574.473171	-466.423770	887.860359	1435.662656	-92.652925	805.431465	1390.026768	-86.207224	817.621298	1335.153211	-44.767302	835.461995	1268.460591	-22.862342	777.556159	1254.267925	-97.141078	725.848662	1522.519482	-522.447754	656.882698	1472.672276	-481.798524	626.035354	1439.973819	-542.409430	586.690762	1368.400143	-564.506665	585.900807	1360.289863	-473.556274	887.417545	1235.879793	-71.786758	1005.224915	1326.428232	-205.326438	1027.326264	1263.547111	-190.429441	648.348528	1294.910569	-546.366091	822.759198	1305.372830	-528.831942	805.626148	1240.472719	-542.020747	927.086219	1097.706234	-446.408190	
240	  2.400000	925.865098	1081.050077	-219.362866	768.516414	1140.462841	-382.616200	767.848340	1135.666542	-292.713140	745.532930	848.273789	-183.418884	783.777183	759.827201	-219.357065	676.610768	697.205864	-225.922676	898.659395	891.634985	-497.841582	1025.284824	844.944576	-492.182823	1034.247671	736.062672	-474.437370	564.659349	471.060896	-287.085061	491.507436	460.956975	-247.997387	418.279638	356.872802	-299.548272	306.690979	310.406754	-291.210709	343.125126	308.015735	-367.278378	1131.254464	527.812013	-452.746633	1038.007690	430.803532	-468.846579	1099.789738	336.344191	-436.462728	268.105696	352.891194	-357.245917	338.904011	138.512769	-343.534225	282.117762	186.113363	-277.033926	991.731095	194.913333	-379.067999	1208.875719	157.759866	-423.147461	1141.392676	141.728950	-484.946890	848.087414	1599.213694	-487.972969	918.131419	1580.840841	-188.708657	963.366371	1516.816539	-331.042519	854.666681	1608.464043	-332.793967	765.540042	1577.883999	-465.381415	888.000713	1440.503991	-92.307870	805.531277	1395.685519	-84.361580	817.862534	1341.004123	-42.646664	835.201895	1274.276096	-20.440627	775.638016	1260.228961	-93.821515	722.773249	1527.295292	-519.635736	655.189823	1477.843767	-476.656902	621.541327	1446.478092	-536.225514	580.273936	1374.760834	-557.637838	582.045605	1367.116942	-466.461627	886.027202	1241.986727	-70.574431	1000.829023	1332.958195	-206.283220	1022.963313	1269.761425	-193.215987	641.976497	1300.870106	-540.495664	816.952831	1310.482438	-527.828313	799.983135	1245.191122	-540.468811	927.803999	1099.571389	-444.061651	
241	  2.410000	926.576498	1085.484161	-217.624977	768.737957	1142.363978	-382.098008	768.520444	1138.562003	-292.091966	749.275986	850.731780	-182.588936	787.450887	762.881033	-221.240129	680.360642	699.859150	-226.167580	893.902636	888.594270	-496.315728	1019.808276	838.752669	-493.981867	1026.361913	729.433704	-475.966252	557.937875	480.212504	-287.207063	483.432202	476.820394	-248.984684	402.018926	378.853226	-299.736387	286.858787	341.617774	-291.616798	322.999979	335.823096	-367.581818	1132.485939	522.213773	-453.501346	1051.803735	415.189183	-468.246947	1123.119810	329.027764	-433.759124	250.190731	385.525585	-358.294048	308.350301	169.203981	-342.358681	255.415835	219.471820	-275.537816	1030.399000	181.631933	-373.812217	1249.685591	157.768084	-416.712310	1183.607983	134.163339	-477.843631	846.012880	1601.397324	-489.314966	917.052117	1584.052680	-189.308939	962.789143	1520.950409	-332.533741	853.541075	1611.472585	-333.919276	763.912397	1580.096613	-465.637444	887.199520	1443.912453	-91.489845	804.620263	1400.033731	-82.597217	816.919366	1345.915036	-40.249150	833.648475	1279.234379	-17.586719	772.869089	1265.537108	-90.365363	720.410627	1530.537258	-518.019693	654.036159	1481.097293	-472.948706	618.033511	1451.083816	-531.668874	575.420305	1379.123585	-552.767889	579.230435	1371.769906	-461.332441	883.418647	1246.834736	-68.573882	996.572521	1336.330666	-205.999780	1018.481785	1273.142843	-194.251912	637.102600	1304.892064	-536.363223	812.549095	1313.528976	-527.288351	795.851029	1247.888087	-539.868864	928.079698	1100.132141	-441.581038	
